<?xml version="1.0" encoding="UTF-8"?>
<svg id="Layer_1" data-name="Layer 1" xmlns="http://www.w3.org/2000/svg" version="1.1" xmlns:xlink="http://www.w3.org/1999/xlink" viewBox="0 0 733 383">
  <defs>
    <style>
      .cls-1 {
        stroke: #666;
      }

      .cls-1, .cls-2, .cls-3, .cls-4, .cls-5, .cls-6, .cls-7, .cls-8, .cls-9, .cls-10, .cls-11 {
        fill: none;
      }

      .cls-1, .cls-2, .cls-3, .cls-4, .cls-6, .cls-7, .cls-8, .cls-9, .cls-10, .cls-11 {
        stroke-linecap: round;
        stroke-linejoin: round;
        stroke-width: .8px;
      }

      .cls-2 {
        stroke: #a6761d;
      }

      .cls-3 {
        stroke: #000;
      }

      .cls-12 {
        font-family: Arial-BoldMT, Arial;
        font-size: 14px;
        font-weight: 700;
      }

      .cls-12, .cls-13 {
        fill: #000;
      }

      .cls-13 {
        font-family: Helvetica, Helvetica;
        font-size: 12px;
      }

      .cls-4 {
        stroke: #7570b3;
      }

      .cls-5, .cls-14 {
        stroke-width: 0px;
      }

      .cls-15 {
        clip-path: url(#clippath-1);
      }

      .cls-16 {
        letter-spacing: 0em;
      }

      .cls-6 {
        stroke: #1b9e77;
      }

      .cls-7 {
        stroke: #66a61e;
      }

      .cls-8 {
        stroke: #ccc;
      }

      .cls-14 {
        fill: #fff;
      }

      .cls-9 {
        stroke: #e7298a;
      }

      .cls-10 {
        stroke: #e6ab02;
      }

      .cls-11 {
        stroke: #d95f02;
      }
    </style>
    <clipPath id="clippath-1">
      <rect class="cls-5" x="59" y="58" width="644.2" height="251.5"/>
    </clipPath>
  </defs>
  <rect class="cls-14" y="-1" width="733.5" height="384"/>
  <line class="cls-3" x1="110.9" y1="309.6" x2="648.6" y2="309.6"/>
  <line class="cls-3" x1="110.9" y1="309.6" x2="110.9" y2="316.8"/>
  <line class="cls-3" x1="218.4" y1="309.6" x2="218.4" y2="316.8"/>
  <line class="cls-3" x1="326" y1="309.6" x2="326" y2="316.8"/>
  <line class="cls-3" x1="433.5" y1="309.6" x2="433.5" y2="316.8"/>
  <line class="cls-3" x1="541.1" y1="309.6" x2="541.1" y2="316.8"/>
  <line class="cls-3" x1="648.6" y1="309.6" x2="648.6" y2="316.8"/>
  <text class="cls-13" transform="translate(102.5 335.5)"><tspan x="0" y="0">0.0</tspan></text>
  <text class="cls-13" transform="translate(210.1 335.5)"><tspan x="0" y="0">0.2</tspan></text>
  <text class="cls-13" transform="translate(317.6 335.5)"><tspan x="0" y="0">0.4</tspan></text>
  <text class="cls-13" transform="translate(425.2 335.5)"><tspan x="0" y="0">0.6</tspan></text>
  <text class="cls-13" transform="translate(532.7 335.5)"><tspan x="0" y="0">0.8</tspan></text>
  <text class="cls-13" transform="translate(640.3 335.5)"><tspan x="0" y="0">1.0</tspan></text>
  <line class="cls-3" x1="59" y1="300.2" x2="59" y2="104"/>
  <line class="cls-3" x1="59" y1="300.2" x2="51.8" y2="300.2"/>
  <line class="cls-3" x1="59" y1="251.2" x2="51.8" y2="251.2"/>
  <line class="cls-3" x1="59" y1="202.1" x2="51.8" y2="202.1"/>
  <line class="cls-3" x1="59" y1="153.1" x2="51.8" y2="153.1"/>
  <line class="cls-3" x1="59" y1="104" x2="51.8" y2="104"/>
  <text class="cls-13" transform="translate(41.8 303.6) rotate(-90)"><tspan x="0" y="0">0</tspan></text>
  <text class="cls-13" transform="translate(41.8 254.5) rotate(-90)"><tspan x="0" y="0">1</tspan></text>
  <text class="cls-13" transform="translate(41.8 205.5) rotate(-90)"><tspan x="0" y="0">2</tspan></text>
  <text class="cls-13" transform="translate(41.8 156.4) rotate(-90)"><tspan x="0" y="0">3</tspan></text>
  <text class="cls-13" transform="translate(41.8 107.4) rotate(-90)"><tspan x="0" y="0">4</tspan></text>
  <rect class="cls-3" x="59" y="58" width="644.2" height="251.5"/>
  <text class="cls-12" transform="translate(343.4 33.5)"><tspan x="0" y="0">Normali</tspan><tspan class="cls-16" x="52.1" y="0">z</tspan><tspan x="59.3" y="0">ed</tspan></text>
  <text class="cls-13" transform="translate(368.8 364.3)"><tspan x="0" y="0">Beta</tspan></text>
  <text class="cls-13" transform="translate(13 203.8) rotate(-90)"><tspan x="0" y="0">Density</tspan></text>
  <g class="cls-15">
    <line class="cls-8" x1="59" y1="300.2" x2="703.3" y2="300.2"/>
    <polyline class="cls-6" points="84.7 300.2 85.9 300.2 87 300.2 88.2 300.2 89.4 300.2 90.5 300.2 91.7 300.2 92.8 300.2 94 300.1 95.2 300.1 96.3 300 97.5 299.9 98.7 299.8 99.8 299.7 101 299.5 102.1 299.3 103.3 299 104.5 298.7 105.6 298.2 106.8 297.7 107.9 297.1 109.1 296.3 110.3 295.4 111.4 294.3 112.6 293.1 113.8 291.7 114.9 290 116.1 288.1 117.2 286 118.4 283.6 119.6 281 120.7 278.1 121.9 275 123.1 271.6 124.2 268 125.4 264.1 126.5 260.1 127.7 255.9 128.9 251.6 130 247.2 131.2 242.8 132.3 238.4 133.5 234 134.7 229.8 135.8 225.8 137 222 138.1 218.5 139.3 215.3 140.5 212.4 141.6 210 142.8 208 144 206.4 145.1 205.4 146.3 204.7 147.4 204.5 148.6 204.7 149.8 205.3 150.9 206.3 152.1 207.6 153.2 209.2 154.4 211.1 155.6 213.2 156.7 215.6 157.9 218 159.1 220.5 160.2 223.1 161.4 225.8 162.6 228.4 163.7 231 164.9 233.6 166 236.1 167.2 238.6 168.4 240.9 169.5 243.2 170.7 245.4 171.8 247.4 173 249.4 174.2 251.2 175.3 252.9 176.5 254.5 177.6 256.1 178.8 257.5 180 258.9 181.1 260.1 182.3 261.3 183.5 262.4 184.6 263.5 185.8 264.5 186.9 265.4 188.1 266.3 189.3 267.1 190.4 267.9 191.6 268.6 192.8 269.3 193.9 269.9 195.1 270.6 196.2 271.1 197.4 271.7 198.6 272.2 199.7 272.8 200.9 273.2 202 273.7 203.2 274.1 204.4 274.6 205.5 275 206.7 275.4 207.9 275.8 209 276.1 210.2 276.5 211.3 276.8 212.5 277.1 213.7 277.4 214.8 277.7 216 278 217.1 278.3 218.3 278.5 219.5 278.8 220.6 279 221.8 279.3 222.9 279.5 224.1 279.7 225.3 279.9 226.4 280.1 227.6 280.2 228.8 280.4 229.9 280.6 231.1 280.7 232.2 280.9 233.4 281 234.6 281.2 235.7 281.3 236.9 281.4 238.1 281.6 239.2 281.7 240.4 281.8 241.5 281.9 242.7 282 243.9 282.1 245 282.2 246.2 282.3 247.4 282.4 248.5 282.5 249.7 282.6 250.8 282.7 252 282.8 253.2 282.8 254.3 282.9 255.5 283 256.6 283 257.8 283.1 259 283.1 260.1 283.2 261.3 283.2 262.5 283.2 263.6 283.2 264.8 283.3 265.9 283.3 267.1 283.3 268.3 283.3 269.4 283.3 270.6 283.2 271.7 283.2 272.9 283.2 274.1 283.2 275.2 283.2 276.4 283.2 277.5 283.1 278.7 283.1 279.9 283.1 281 283 282.2 283 283.4 283 284.5 282.9 285.7 282.9 286.8 282.9 288 282.8 289.2 282.8 290.3 282.8 291.5 282.7 292.6 282.7 293.8 282.7 295 282.6 296.1 282.6 297.3 282.6 298.5 282.5 299.6 282.5 300.8 282.5 302 282.4 303.1 282.4 304.3 282.4 305.4 282.3 306.6 282.3 307.8 282.3 308.9 282.2 310.1 282.2 311.2 282.2 312.4 282.1 313.6 282.1 314.7 282.1 315.9 282 317 282 318.2 281.9 319.4 281.9 320.5 281.8 321.7 281.8 322.9 281.8 324 281.7 325.2 281.6 326.3 281.6 327.5 281.5 328.7 281.5 329.8 281.4 331 281.3 332.1 281.3 333.3 281.2 334.5 281.2 335.6 281.1 336.8 281.1 338 281 339.1 281 340.3 280.9 341.4 280.9 342.6 280.8 343.8 280.8 344.9 280.8 346.1 280.7 347.2 280.7 348.4 280.7 349.6 280.7 350.7 280.6 351.9 280.6 353.1 280.6 354.2 280.6 355.4 280.6 356.5 280.6 357.7 280.6 358.9 280.5 360 280.5 361.2 280.5 362.4 280.5 363.5 280.5 364.7 280.6 365.8 280.6 367 280.6 368.2 280.6 369.3 280.6 370.5 280.6 371.6 280.6 372.8 280.7 374 280.7 375.1 280.7 376.3 280.7 377.5 280.8 378.6 280.8 379.8 280.8 380.9 280.8 382.1 280.8 383.3 280.8 384.4 280.8 385.6 280.8 386.8 280.8 387.9 280.8 389.1 280.8 390.2 280.8 391.4 280.8 392.5 280.7 393.7 280.7 394.9 280.7 396 280.6 397.2 280.6 398.4 280.5 399.5 280.5 400.7 280.4 401.9 280.3 403 280.3 404.2 280.2 405.3 280.1 406.5 280.1 407.7 280 408.8 279.9 410 279.8 411.1 279.7 412.3 279.7 413.5 279.6 414.6 279.5 415.8 279.4 417 279.3 418.1 279.2 419.3 279.1 420.4 278.9 421.6 278.8 422.8 278.7 423.9 278.6 425.1 278.5 426.2 278.4 427.4 278.2 428.6 278.1 429.7 277.9 430.9 277.8 432 277.6 433.2 277.5 434.4 277.3 435.5 277.1 436.7 276.9 437.9 276.7 439 276.5 440.2 276.3 441.3 276.1 442.5 275.8 443.7 275.6 444.8 275.4 446 275.1 447.1 274.9 448.3 274.7 449.5 274.4 450.6 274.2 451.8 273.9 453 273.7 454.1 273.4 455.3 273.2 456.5 272.9 457.6 272.6 458.8 272.4 459.9 272.1 461.1 271.8 462.2 271.5 463.4 271.2 464.6 270.9 465.7 270.6 466.9 270.3 468.1 270 469.2 269.6 470.4 269.3 471.5 268.9 472.7 268.6 473.9 268.2 475 267.8 476.2 267.4 477.4 267 478.5 266.6 479.7 266.1 480.8 265.7 482 265.2 483.2 264.8 484.3 264.3 485.5 263.8 486.6 263.3 487.8 262.8 489 262.3 490.1 261.7 491.3 261.2 492.5 260.6 493.6 260 494.8 259.4 495.9 258.8 497.1 258.1 498.3 257.4 499.4 256.8 500.6 256 501.8 255.3 502.9 254.5 504.1 253.8 505.2 252.9 506.4 252.1 507.6 251.3 508.7 250.4 509.9 249.5 511 248.5 512.2 247.6 513.4 246.6 514.5 245.6 515.7 244.6 516.8 243.5 518 242.4 519.2 241.3 520.3 240.1 521.5 239 522.7 237.7 523.8 236.5 525 235.2 526.2 233.9 527.3 232.5 528.5 231 529.6 229.5 530.8 228 532 226.4 533.1 224.8 534.3 223.1 535.4 221.3 536.6 219.4 537.8 217.5 538.9 215.5 540.1 213.4 541.2 211.3 542.4 209.1 543.6 206.8 544.7 204.4 545.9 201.9 547.1 199.4 548.2 196.8 549.4 194.1 550.5 191.3 551.7 188.4 552.9 185.5 554 182.5 555.2 179.4 556.3 176.2 557.5 172.9 558.7 169.6 559.8 166.2 561 162.8 562.2 159.3 563.3 155.7 564.5 152 565.6 148.4 566.8 144.6 568 140.9 569.1 137.1 570.3 133.3 571.5 129.6 572.6 125.8 573.8 122.1 574.9 118.6 576.1 115.1 577.3 111.7 578.4 108.5 579.6 105.5 580.7 102.7 581.9 100.2 583.1 98 584.2 96.1 585.4 94.6 586.5 93.5 587.7 92.8 588.9 92.6 590 92.8 591.2 93.6 592.4 95 593.5 96.9 594.7 99.4 595.8 102.5 597 106.1 598.2 110.3 599.3 115 600.5 120.3 601.7 126.1 602.8 132.3 604 139 605.1 146 606.3 153.3 607.5 160.8 608.6 168.5 609.8 176.3 611 184.1 612.1 191.9 613.3 199.7 614.4 207.2 615.6 214.6 616.8 221.8 617.9 228.7 619.1 235.2 620.2 241.4 621.4 247.2 622.6 252.7 623.7 257.7 624.9 262.4 626 266.6 627.2 270.6 628.4 274.1 629.5 277.3 630.7 280.2 631.9 282.8 633 285.1 634.2 287.1 635.3 288.9 636.5 290.5 637.7 291.9 638.8 293.1 640 294.2 641.2 295.1 642.3 295.9 643.5 296.6 644.6 297.2 645.8 297.7 647 298.1 648.1 298.5 649.3 298.8 650.4 299.1 651.6 299.3 652.8 299.5 653.9 299.7 655.1 299.8 656.2 299.9 657.4 300 658.6 300 659.7 300.1 660.9 300.1 662.1 300.2 663.2 300.2 664.4 300.2 665.5 300.2 666.7 300.2 667.9 300.2 669 300.2 670.2 300.2 671.3 300.2 672.5 300.2 673.7 300.2 674.8 300.2 676 300.2 677.2 300.2 678.3 300.2"/>
    <polyline class="cls-11" points="84.6 300.2 85.8 300.2 86.9 300.2 88.1 300.2 89.2 300.2 90.4 300.2 91.6 300.2 92.7 300.2 93.9 300.1 95.1 300.1 96.2 300 97.4 299.9 98.6 299.8 99.7 299.7 100.9 299.5 102 299.3 103.2 299 104.4 298.6 105.5 298.2 106.7 297.7 107.8 297 109 296.2 110.2 295.3 111.3 294.2 112.5 293 113.7 291.6 114.8 289.9 116 288.1 117.1 285.9 118.3 283.6 119.5 280.9 120.6 278.1 121.8 275 122.9 271.6 124.1 268 125.3 264.2 126.4 260.2 127.6 256 128.8 251.7 129.9 247.4 131.1 242.9 132.2 238.5 133.4 234.2 134.6 229.9 135.7 225.9 136.9 222 138.1 218.4 139.2 215.2 140.4 212.3 141.5 209.7 142.7 207.6 143.9 205.9 145 204.7 146.2 203.9 147.4 203.6 148.5 203.7 149.7 204.1 150.8 205 152 206.2 153.2 207.7 154.3 209.5 155.5 211.6 156.6 213.8 157.8 216.2 159 218.8 160.1 221.4 161.3 224 162.4 226.7 163.6 229.4 164.8 232 165.9 234.6 167.1 237.1 168.3 239.5 169.4 241.9 170.6 244.1 171.8 246.3 172.9 248.3 174.1 250.2 175.2 252 176.4 253.7 177.6 255.3 178.7 256.8 179.9 258.2 181 259.6 182.2 260.8 183.4 262 184.5 263 185.7 264.1 186.9 265 188 265.9 189.2 266.7 190.3 267.5 191.5 268.3 192.7 269 193.8 269.6 195 270.3 196.1 270.9 197.3 271.4 198.5 272 199.6 272.5 200.8 273 202 273.5 203.1 273.9 204.3 274.3 205.4 274.8 206.6 275.2 207.8 275.6 208.9 275.9 210.1 276.3 211.2 276.6 212.4 276.9 213.6 277.2 214.7 277.5 215.9 277.8 217.1 278.1 218.2 278.3 219.4 278.6 220.6 278.8 221.7 279 222.9 279.2 224 279.5 225.2 279.7 226.4 279.9 227.5 280 228.7 280.2 229.8 280.4 231 280.6 232.2 280.7 233.3 280.9 234.5 281 235.6 281.2 236.8 281.3 238 281.4 239.1 281.5 240.3 281.6 241.5 281.8 242.6 281.9 243.8 282 244.9 282.1 246.1 282.2 247.3 282.2 248.4 282.3 249.6 282.4 250.8 282.5 251.9 282.6 253.1 282.6 254.2 282.7 255.4 282.8 256.6 282.8 257.7 282.9 258.9 282.9 260 282.9 261.2 282.9 262.4 283 263.5 283 264.7 283 265.9 283 267 283 268.2 283 269.4 283 270.5 283 271.7 283 272.8 282.9 274 282.9 275.2 282.9 276.3 282.9 277.5 282.9 278.6 282.8 279.8 282.8 281 282.8 282.1 282.8 283.3 282.7 284.5 282.7 285.6 282.7 286.8 282.7 287.9 282.6 289.1 282.6 290.3 282.6 291.4 282.5 292.6 282.5 293.8 282.5 294.9 282.4 296.1 282.4 297.2 282.4 298.4 282.3 299.6 282.3 300.7 282.3 301.9 282.2 303 282.2 304.2 282.2 305.4 282.1 306.5 282.1 307.7 282 308.9 281.9 310 281.9 311.2 281.8 312.3 281.8 313.5 281.7 314.7 281.6 315.8 281.6 317 281.5 318.1 281.4 319.3 281.4 320.5 281.3 321.6 281.2 322.8 281.2 324 281.1 325.1 281.1 326.3 281.1 327.4 281 328.6 281 329.8 280.9 330.9 280.9 332.1 280.9 333.2 280.8 334.4 280.8 335.6 280.8 336.7 280.8 337.9 280.8 339.1 280.8 340.2 280.7 341.4 280.7 342.5 280.7 343.7 280.7 344.9 280.7 346 280.7 347.2 280.7 348.4 280.8 349.5 280.8 350.7 280.8 351.8 280.8 353 280.8 354.2 280.8 355.3 280.9 356.5 280.9 357.6 280.9 358.8 280.9 360 281 361.1 281 362.3 281 363.5 281 364.6 281.1 365.8 281.1 366.9 281.1 368.1 281.1 369.3 281.2 370.4 281.2 371.6 281.2 372.8 281.2 373.9 281.2 375.1 281.2 376.2 281.2 377.4 281.2 378.6 281.2 379.7 281.2 380.9 281.2 382 281.2 383.2 281.2 384.4 281.2 385.5 281.2 386.7 281.1 387.9 281.1 389 281 390.2 281 391.3 280.9 392.5 280.9 393.7 280.8 394.8 280.8 396 280.7 397.1 280.7 398.3 280.6 399.5 280.6 400.6 280.5 401.8 280.4 403 280.3 404.1 280.3 405.3 280.2 406.5 280.1 407.6 280.1 408.8 280 409.9 279.9 411.1 279.8 412.3 279.8 413.4 279.7 414.6 279.6 415.7 279.5 416.9 279.4 418.1 279.3 419.2 279.2 420.4 279.1 421.5 279 422.7 278.9 423.9 278.8 425 278.6 426.2 278.5 427.4 278.4 428.5 278.3 429.7 278.1 430.9 278 432 277.9 433.2 277.7 434.3 277.6 435.5 277.4 436.7 277.3 437.8 277.1 439 277 440.1 276.8 441.3 276.6 442.5 276.5 443.6 276.3 444.8 276.1 446 275.9 447.1 275.7 448.3 275.5 449.4 275.3 450.6 275.1 451.8 274.9 452.9 274.7 454.1 274.4 455.2 274.2 456.4 274 457.6 273.7 458.7 273.5 459.9 273.2 461.1 272.9 462.2 272.7 463.4 272.4 464.5 272.1 465.7 271.8 466.9 271.4 468 271.1 469.2 270.8 470.4 270.5 471.5 270.1 472.7 269.8 473.8 269.4 475 269.1 476.2 268.7 477.3 268.3 478.5 267.9 479.6 267.5 480.8 267.1 482 266.7 483.1 266.3 484.3 265.8 485.5 265.4 486.6 264.9 487.8 264.5 488.9 264 490.1 263.5 491.3 263 492.4 262.5 493.6 262 494.8 261.4 495.9 260.9 497.1 260.3 498.2 259.7 499.4 259.1 500.6 258.4 501.7 257.8 502.9 257.1 504 256.4 505.2 255.6 506.4 254.9 507.5 254.1 508.7 253.2 509.9 252.4 511 251.5 512.2 250.6 513.3 249.6 514.5 248.7 515.7 247.6 516.8 246.6 518 245.5 519.2 244.3 520.3 243.1 521.5 241.9 522.6 240.7 523.8 239.4 525 238 526.1 236.6 527.3 235.2 528.5 233.7 529.6 232.2 530.8 230.6 531.9 229 533.1 227.4 534.3 225.6 535.4 223.8 536.6 222 537.7 220.1 538.9 218.1 540.1 216 541.2 213.9 542.4 211.7 543.5 209.4 544.7 207.1 545.9 204.6 547 202.1 548.2 199.5 549.4 196.8 550.5 194 551.7 191.1 552.8 188.1 554 185.1 555.2 181.9 556.3 178.6 557.5 175.2 558.7 171.8 559.8 168.2 561 164.6 562.1 160.9 563.3 157.2 564.5 153.3 565.6 149.4 566.8 145.5 568 141.6 569.1 137.6 570.3 133.6 571.4 129.7 572.6 125.8 573.8 122 574.9 118.2 576.1 114.5 577.2 111 578.4 107.6 579.6 104.4 580.7 101.5 581.9 98.8 583.1 96.4 584.2 94.3 585.4 92.6 586.5 91.3 587.7 90.4 588.9 89.9 590 89.9 591.2 90.5 592.3 91.7 593.5 93.4 594.7 95.6 595.8 98.5 597 101.9 598.2 105.9 599.3 110.4 600.5 115.5 601.7 121.1 602.8 127.3 604 133.8 605.1 140.8 606.3 148 607.5 155.6 608.6 163.3 609.8 171.2 610.9 179.2 612.1 187.1 613.3 195.1 614.4 202.9 615.6 210.5 616.8 217.9 617.9 225.1 619.1 232 620.2 238.4 621.4 244.5 622.6 250.2 623.7 255.6 624.9 260.5 626 265 627.2 269.2 628.4 272.9 629.5 276.3 630.7 279.3 631.9 282 633 284.4 634.2 286.6 635.3 288.4 636.5 290.1 637.7 291.6 638.8 292.8 640 293.9 641.2 294.9 642.3 295.7 643.5 296.4 644.6 297.1 645.8 297.6 647 298.1 648.1 298.4 649.3 298.8 650.5 299 651.6 299.3 652.8 299.5 653.9 299.6 655.1 299.8 656.2 299.8 657.4 299.9 658.6 300 659.7 300.1 660.9 300.1 662.1 300.1 663.2 300.2 664.4 300.2 665.5 300.2 666.7 300.2 667.9 300.2 669 300.2 670.2 300.2 671.4 300.2 672.5 300.2 673.7 300.2 674.8 300.2 676 300.2 677.2 300.2 678.3 300.2"/>
    <polyline class="cls-4" points="84.6 300.2 85.7 300.2 86.9 300.2 88 300.2 89.2 300.2 90.4 300.2 91.5 300.2 92.7 300.2 93.8 300.1 95 300.1 96.2 300 97.3 299.9 98.5 299.8 99.7 299.7 100.8 299.5 102 299.3 103.1 299 104.3 298.6 105.5 298.2 106.6 297.7 107.8 297.1 108.9 296.3 110.1 295.4 111.3 294.3 112.4 293.1 113.6 291.7 114.8 290.1 115.9 288.3 117.1 286.2 118.2 283.9 119.4 281.4 120.6 278.6 121.7 275.5 122.9 272.2 124 268.7 125.2 264.9 126.4 261 127.5 256.8 128.7 252.6 129.8 248.2 131 243.9 132.2 239.4 133.3 235.1 134.5 230.8 135.6 226.8 136.8 222.9 138 219.3 139.1 216 140.3 213 141.5 210.4 142.6 208.2 143.8 206.5 144.9 205.2 146.1 204.4 147.3 204 148.4 204.1 149.6 204.5 150.8 205.3 151.9 206.5 153.1 208 154.2 209.9 155.4 211.9 156.6 214.1 157.7 216.6 158.9 219.1 160 221.7 161.2 224.3 162.4 227 163.5 229.7 164.7 232.3 165.8 234.9 167 237.4 168.2 239.8 169.3 242.1 170.5 244.3 171.6 246.4 172.8 248.4 174 250.3 175.1 252.1 176.3 253.7 177.5 255.3 178.6 256.8 179.8 258.1 180.9 259.4 182.1 260.6 183.3 261.8 184.4 262.8 185.6 263.8 186.8 264.7 187.9 265.6 189.1 266.4 190.2 267.2 191.4 267.9 192.6 268.6 193.7 269.2 194.9 269.8 196 270.4 197.2 270.9 198.4 271.5 199.5 271.9 200.7 272.4 201.8 272.9 203 273.3 204.2 273.7 205.3 274.1 206.5 274.4 207.6 274.8 208.8 275.1 210 275.5 211.1 275.8 212.3 276.1 213.5 276.4 214.6 276.6 215.8 276.9 216.9 277.2 218.1 277.4 219.3 277.7 220.4 277.9 221.6 278.1 222.8 278.4 223.9 278.6 225.1 278.8 226.2 279 227.4 279.2 228.6 279.4 229.7 279.6 230.9 279.8 232 280 233.2 280.2 234.4 280.3 235.5 280.5 236.7 280.6 237.8 280.8 239 280.9 240.2 281 241.3 281.1 242.5 281.2 243.6 281.3 244.8 281.4 246 281.5 247.1 281.6 248.3 281.7 249.5 281.7 250.6 281.8 251.8 281.9 252.9 281.9 254.1 282 255.3 282.1 256.4 282.1 257.6 282.1 258.8 282.2 259.9 282.2 261.1 282.2 262.2 282.3 263.4 282.3 264.5 282.3 265.7 282.3 266.9 282.3 268 282.3 269.2 282.3 270.4 282.3 271.5 282.3 272.7 282.3 273.8 282.3 275 282.3 276.2 282.3 277.3 282.3 278.5 282.3 279.6 282.3 280.8 282.2 282 282.2 283.1 282.2 284.3 282.2 285.5 282.2 286.6 282.1 287.8 282.1 288.9 282.1 290.1 282 291.3 282 292.4 282 293.6 281.9 294.8 281.9 295.9 281.9 297.1 281.8 298.2 281.8 299.4 281.8 300.5 281.8 301.7 281.7 302.9 281.7 304 281.7 305.2 281.7 306.4 281.6 307.5 281.6 308.7 281.6 309.8 281.6 311 281.6 312.2 281.6 313.3 281.6 314.5 281.6 315.6 281.6 316.8 281.6 318 281.6 319.1 281.6 320.3 281.6 321.5 281.6 322.6 281.6 323.8 281.6 324.9 281.6 326.1 281.7 327.3 281.7 328.4 281.7 329.6 281.7 330.8 281.7 331.9 281.7 333.1 281.7 334.2 281.8 335.4 281.8 336.5 281.8 337.7 281.8 338.9 281.8 340 281.9 341.2 281.9 342.4 281.9 343.5 281.9 344.7 282 345.8 282 347 282 348.2 282.1 349.3 282.1 350.5 282.1 351.6 282.1 352.8 282.1 354 282.2 355.1 282.2 356.3 282.2 357.5 282.2 358.6 282.2 359.8 282.2 360.9 282.2 362.1 282.2 363.3 282.2 364.4 282.2 365.6 282.2 366.8 282.2 367.9 282.2 369.1 282.2 370.2 282.2 371.4 282.2 372.5 282.2 373.7 282.2 374.9 282.2 376 282.2 377.2 282.2 378.4 282.2 379.5 282.2 380.7 282.2 381.9 282.2 383 282.1 384.2 282.1 385.3 282.1 386.5 282.1 387.6 282 388.8 282 390 281.9 391.1 281.9 392.3 281.8 393.5 281.8 394.6 281.7 395.8 281.7 396.9 281.6 398.1 281.5 399.3 281.4 400.4 281.4 401.6 281.3 402.8 281.2 403.9 281.1 405.1 281 406.2 280.9 407.4 280.8 408.6 280.8 409.7 280.7 410.9 280.6 412 280.4 413.2 280.3 414.4 280.2 415.5 280.1 416.7 280 417.9 279.9 419 279.8 420.2 279.7 421.3 279.5 422.5 279.4 423.6 279.3 424.8 279.2 426 279 427.1 278.9 428.3 278.8 429.5 278.6 430.6 278.5 431.8 278.3 432.9 278.2 434.1 278 435.3 277.8 436.4 277.6 437.6 277.5 438.8 277.3 439.9 277.1 441.1 276.9 442.2 276.7 443.4 276.5 444.6 276.2 445.7 276 446.9 275.8 448 275.6 449.2 275.3 450.4 275.1 451.5 274.8 452.7 274.6 453.9 274.3 455 274.1 456.2 273.8 457.3 273.6 458.5 273.3 459.6 273 460.8 272.7 462 272.4 463.1 272.1 464.3 271.8 465.5 271.5 466.6 271.2 467.8 270.8 468.9 270.5 470.1 270.1 471.3 269.8 472.4 269.4 473.6 269 474.8 268.6 475.9 268.2 477.1 267.8 478.2 267.4 479.4 267 480.6 266.6 481.7 266.1 482.9 265.7 484 265.2 485.2 264.7 486.4 264.2 487.5 263.7 488.7 263.2 489.9 262.7 491 262.2 492.2 261.6 493.3 261 494.5 260.4 495.6 259.8 496.8 259.2 498 258.5 499.1 257.8 500.3 257.1 501.5 256.4 502.6 255.6 503.8 254.9 504.9 254.1 506.1 253.2 507.3 252.4 508.4 251.5 509.6 250.6 510.8 249.7 511.9 248.8 513.1 247.8 514.2 246.8 515.4 245.8 516.6 244.7 517.7 243.6 518.9 242.5 520 241.4 521.2 240.2 522.4 239 523.5 237.7 524.7 236.4 525.8 235.1 527 233.7 528.2 232.3 529.3 230.8 530.5 229.3 531.7 227.8 532.8 226.1 534 224.5 535.1 222.8 536.3 221 537.5 219.2 538.6 217.3 539.8 215.4 540.9 213.4 542.1 211.3 543.3 209.1 544.4 206.9 545.6 204.6 546.8 202.2 547.9 199.7 549.1 197.1 550.2 194.5 551.4 191.8 552.6 188.9 553.7 186 554.9 183 556 179.9 557.2 176.7 558.4 173.4 559.5 170 560.7 166.5 561.8 163 563 159.4 564.2 155.7 565.3 151.9 566.5 148.1 567.7 144.2 568.8 140.4 570 136.4 571.1 132.5 572.3 128.6 573.5 124.8 574.6 121 575.8 117.2 576.9 113.6 578.1 110.1 579.3 106.8 580.4 103.6 581.6 100.7 582.8 98.1 583.9 95.8 585.1 93.9 586.2 92.3 587.4 91.1 588.6 90.4 589.7 90.1 590.9 90.4 592 91.3 593.2 92.8 594.4 94.8 595.5 97.4 596.7 100.6 597.8 104.4 599 108.8 600.2 113.7 601.3 119.2 602.5 125.3 603.7 131.7 604.8 138.6 606 145.9 607.1 153.4 608.3 161.1 609.5 169.1 610.6 177.1 611.8 185.2 612.9 193.2 614.1 201.1 615.3 208.9 616.4 216.4 617.6 223.7 618.8 230.7 619.9 237.3 621.1 243.5 622.2 249.3 623.4 254.7 624.6 259.7 625.7 264.3 626.9 268.6 628 272.4 629.2 275.8 630.4 278.9 631.5 281.7 632.7 284.1 633.8 286.3 635 288.2 636.2 289.9 637.3 291.4 638.5 292.7 639.7 293.8 640.8 294.8 642 295.6 643.1 296.3 644.3 297 645.5 297.5 646.6 298 647.8 298.4 648.9 298.7 650.1 299 651.3 299.2 652.4 299.4 653.6 299.6 654.8 299.7 655.9 299.8 657.1 299.9 658.2 300 659.4 300.1 660.6 300.1 661.7 300.1 662.9 300.2 664 300.2 665.2 300.2 666.4 300.2 667.5 300.2 668.7 300.2 669.8 300.2 671 300.2 672.2 300.2 673.3 300.2 674.5 300.2 675.7 300.2 676.8 300.2 678 300.2"/>
    <polyline class="cls-9" points="84.2 300.2 85.3 300.2 86.5 300.2 87.7 300.2 88.8 300.2 90 300.2 91.2 300.2 92.3 300.2 93.5 300.1 94.6 300.1 95.8 300 97 299.9 98.1 299.8 99.3 299.7 100.4 299.6 101.6 299.3 102.8 299.1 103.9 298.8 105.1 298.3 106.3 297.8 107.4 297.2 108.6 296.5 109.8 295.6 110.9 294.6 112.1 293.4 113.2 292.1 114.4 290.4 115.6 288.6 116.7 286.6 117.9 284.2 119 281.7 120.2 278.9 121.4 275.8 122.5 272.5 123.7 268.9 124.9 265.1 126 261.1 127.2 256.9 128.3 252.6 129.5 248.2 130.7 243.8 131.8 239.4 133 235 134.1 230.8 135.3 226.7 136.5 222.8 137.6 219.2 138.8 216 140 213.1 141.1 210.6 142.3 208.5 143.4 206.9 144.6 205.8 145.8 205.1 146.9 204.8 148.1 205 149.3 205.6 150.4 206.6 151.6 207.9 152.8 209.5 153.9 211.5 155.1 213.6 156.2 215.9 157.4 218.4 158.6 221 159.7 223.6 160.9 226.2 162 228.9 163.2 231.6 164.4 234.1 165.5 236.6 166.7 239.1 167.9 241.4 169 243.6 170.2 245.8 171.3 247.8 172.5 249.6 173.7 251.4 174.8 253.1 176 254.7 177.1 256.1 178.3 257.5 179.5 258.8 180.6 260.1 181.8 261.2 183 262.3 184.1 263.3 185.3 264.2 186.4 265.1 187.6 266 188.8 266.8 189.9 267.6 191.1 268.3 192.3 269 193.4 269.6 194.6 270.2 195.8 270.8 196.9 271.4 198.1 271.9 199.2 272.4 200.4 272.9 201.6 273.3 202.7 273.7 203.9 274.1 205 274.5 206.2 274.9 207.4 275.2 208.5 275.6 209.7 275.9 210.9 276.2 212 276.5 213.2 276.8 214.3 277.1 215.5 277.3 216.7 277.6 217.8 277.9 219 278.1 220.1 278.4 221.3 278.6 222.5 278.8 223.6 279 224.8 279.2 226 279.4 227.1 279.6 228.3 279.8 229.4 280 230.6 280.2 231.8 280.3 232.9 280.5 234.1 280.6 235.3 280.8 236.4 280.9 237.6 281 238.8 281.2 239.9 281.3 241.1 281.4 242.2 281.5 243.4 281.7 244.6 281.8 245.7 281.9 246.9 282 248 282.1 249.2 282.2 250.4 282.3 251.5 282.4 252.7 282.5 253.9 282.5 255 282.6 256.2 282.7 257.3 282.7 258.5 282.8 259.7 282.8 260.8 282.8 262 282.8 263.1 282.9 264.3 282.9 265.5 282.9 266.6 282.9 267.8 282.9 269 282.8 270.1 282.8 271.3 282.8 272.5 282.8 273.6 282.8 274.8 282.8 275.9 282.7 277.1 282.7 278.3 282.7 279.4 282.7 280.6 282.7 281.8 282.6 282.9 282.6 284.1 282.6 285.2 282.6 286.4 282.5 287.6 282.5 288.7 282.5 289.9 282.4 291 282.4 292.2 282.4 293.4 282.3 294.5 282.3 295.7 282.3 296.9 282.2 298 282.2 299.2 282.2 300.3 282.1 301.5 282.1 302.7 282.1 303.8 282 305 282 306.1 281.9 307.3 281.9 308.5 281.8 309.6 281.8 310.8 281.8 312 281.7 313.1 281.7 314.3 281.6 315.5 281.6 316.6 281.6 317.8 281.5 318.9 281.5 320.1 281.5 321.3 281.5 322.4 281.4 323.6 281.4 324.8 281.4 325.9 281.4 327.1 281.4 328.2 281.4 329.4 281.4 330.6 281.4 331.7 281.4 332.9 281.4 334 281.3 335.2 281.3 336.4 281.3 337.5 281.3 338.7 281.3 339.9 281.3 341 281.3 342.2 281.3 343.3 281.3 344.5 281.2 345.7 281.2 346.8 281.2 348 281.2 349.1 281.2 350.3 281.2 351.5 281.2 352.6 281.3 353.8 281.3 355 281.3 356.1 281.3 357.3 281.3 358.5 281.3 359.6 281.3 360.8 281.3 361.9 281.3 363.1 281.3 364.3 281.3 365.4 281.4 366.6 281.4 367.8 281.4 368.9 281.4 370.1 281.4 371.2 281.4 372.4 281.4 373.6 281.4 374.7 281.4 375.9 281.4 377 281.4 378.2 281.4 379.4 281.4 380.5 281.4 381.7 281.4 382.9 281.4 384 281.4 385.2 281.3 386.3 281.3 387.5 281.3 388.7 281.3 389.8 281.2 391 281.2 392.1 281.1 393.3 281.1 394.5 281.1 395.6 281 396.8 280.9 398 280.9 399.1 280.8 400.3 280.7 401.5 280.6 402.6 280.6 403.8 280.5 404.9 280.4 406.1 280.3 407.3 280.2 408.4 280.1 409.6 279.9 410.8 279.8 411.9 279.7 413.1 279.6 414.2 279.5 415.4 279.3 416.6 279.2 417.7 279.1 418.9 278.9 420 278.8 421.2 278.7 422.4 278.5 423.5 278.4 424.7 278.2 425.9 278.1 427 277.9 428.2 277.8 429.3 277.6 430.5 277.4 431.7 277.2 432.8 277 434 276.8 435.1 276.6 436.3 276.4 437.5 276.2 438.6 275.9 439.8 275.7 441 275.4 442.1 275.2 443.3 274.9 444.5 274.7 445.6 274.4 446.8 274.1 447.9 273.8 449.1 273.5 450.3 273.2 451.4 272.9 452.6 272.6 453.8 272.3 454.9 272 456.1 271.7 457.2 271.3 458.4 271 459.6 270.7 460.7 270.4 461.9 270 463 269.7 464.2 269.3 465.4 269 466.5 268.6 467.7 268.2 468.9 267.9 470 267.5 471.2 267.1 472.3 266.7 473.5 266.3 474.7 265.9 475.8 265.4 477 265 478.1 264.6 479.3 264.1 480.5 263.6 481.6 263.1 482.8 262.6 484 262.1 485.1 261.6 486.3 261.1 487.5 260.5 488.6 259.9 489.8 259.3 490.9 258.7 492.1 258.1 493.3 257.5 494.4 256.9 495.6 256.2 496.8 255.5 497.9 254.9 499.1 254.2 500.2 253.5 501.4 252.7 502.6 252 503.7 251.2 504.9 250.4 506 249.7 507.2 248.8 508.4 248 509.5 247.1 510.7 246.3 511.9 245.4 513 244.4 514.2 243.5 515.3 242.5 516.5 241.5 517.7 240.5 518.8 239.4 520 238.3 521.2 237.2 522.3 236.1 523.5 234.9 524.6 233.7 525.8 232.5 527 231.2 528.1 229.9 529.3 228.6 530.5 227.2 531.6 225.8 532.8 224.3 533.9 222.8 535.1 221.3 536.3 219.7 537.4 218 538.6 216.4 539.8 214.6 540.9 212.8 542.1 210.9 543.2 209 544.4 207 545.6 205 546.7 202.9 547.9 200.7 549 198.4 550.2 196.1 551.4 193.7 552.5 191.2 553.7 188.7 554.8 186 556 183.3 557.2 180.5 558.3 177.6 559.5 174.7 560.7 171.6 561.8 168.5 563 165.3 564.2 162.1 565.3 158.7 566.5 155.4 567.6 151.9 568.8 148.4 570 144.9 571.1 141.4 572.3 137.9 573.5 134.4 574.6 130.9 575.8 127.4 576.9 124 578.1 120.8 579.3 117.6 580.4 114.5 581.6 111.6 582.7 109 583.9 106.6 585.1 104.4 586.2 102.6 587.4 101 588.6 99.9 589.7 99.1 590.9 98.8 592 99 593.2 99.7 594.4 100.9 595.5 102.7 596.7 105 597.8 107.9 599 111.4 600.2 115.4 601.3 120 602.5 125.2 603.7 130.9 604.8 137.1 606 143.6 607.2 150.6 608.3 157.8 609.5 165.3 610.6 173 611.8 180.9 613 188.7 614.1 196.5 615.3 204.3 616.5 211.9 617.6 219.3 618.8 226.4 619.9 233.3 621.1 239.7 622.3 245.8 623.4 251.5 624.6 256.8 625.7 261.8 626.9 266.3 628.1 270.4 629.2 274.1 630.4 277.4 631.6 280.4 632.7 283.1 633.9 285.4 635 287.5 636.2 289.3 637.4 290.9 638.5 292.3 639.7 293.5 640.8 294.5 642 295.4 643.2 296.2 644.3 296.9 645.5 297.4 646.7 297.9 647.8 298.3 649 298.7 650.2 299 651.3 299.2 652.5 299.4 653.6 299.6 654.8 299.7 656 299.8 657.1 299.9 658.3 300 659.5 300.1 660.6 300.1 661.8 300.1 662.9 300.2 664.1 300.2 665.3 300.2 666.4 300.2 667.6 300.2 668.7 300.2 669.9 300.2 671.1 300.2 672.2 300.2 673.4 300.2 674.6 300.2 675.7 300.2 676.9 300.2 678 300.2"/>
    <polyline class="cls-7" points="85 300.2 86.1 300.2 87.3 300.2 88.4 300.2 89.6 300.2 90.8 300.2 91.9 300.2 93.1 300.1 94.2 300.1 95.4 300.1 96.6 300 97.7 299.9 98.9 299.8 100 299.6 101.2 299.4 102.3 299.2 103.5 298.9 104.7 298.5 105.8 298.1 107 297.5 108.1 296.9 109.3 296.1 110.5 295.2 111.6 294.1 112.8 292.8 113.9 291.3 115.1 289.7 116.2 287.8 117.4 285.7 118.6 283.3 119.7 280.7 120.9 277.8 122.1 274.7 123.2 271.4 124.4 267.8 125.5 264 126.7 260 127.8 255.8 129 251.5 130.2 247.1 131.3 242.7 132.5 238.3 133.6 234 134.8 229.8 136 225.7 137.1 221.9 138.3 218.3 139.4 215.1 140.6 212.2 141.8 209.7 142.9 207.6 144.1 205.9 145.2 204.7 146.4 204 147.6 203.7 148.7 203.9 149.9 204.4 151 205.3 152.2 206.6 153.3 208.1 154.5 210 155.7 212.1 156.8 214.3 158 216.8 159.1 219.3 160.3 221.9 161.4 224.5 162.6 227.2 163.8 229.8 164.9 232.4 166.1 235 167.2 237.4 168.4 239.8 169.6 242 170.7 244.2 171.9 246.3 173 248.2 174.2 250 175.4 251.8 176.5 253.4 177.7 254.9 178.8 256.3 180 257.6 181.2 258.9 182.3 260.1 183.5 261.1 184.6 262.2 185.8 263.1 186.9 264 188.1 264.8 189.3 265.6 190.4 266.4 191.6 267.1 192.8 267.8 193.9 268.4 195.1 269 196.2 269.6 197.4 270.2 198.5 270.7 199.7 271.2 200.9 271.7 202 272.2 203.2 272.7 204.3 273.1 205.5 273.6 206.6 274 207.8 274.4 209 274.8 210.1 275.1 211.3 275.5 212.4 275.8 213.6 276.1 214.8 276.4 215.9 276.7 217.1 277 218.2 277.3 219.4 277.6 220.6 277.8 221.7 278.1 222.9 278.3 224 278.5 225.2 278.7 226.4 278.9 227.5 279.1 228.7 279.3 229.8 279.5 231 279.7 232.1 279.8 233.3 280 234.5 280.1 235.6 280.3 236.8 280.4 237.9 280.5 239.1 280.7 240.3 280.8 241.4 280.9 242.6 281 243.7 281 244.9 281.1 246.1 281.2 247.2 281.3 248.4 281.3 249.5 281.4 250.7 281.5 251.9 281.5 253 281.6 254.2 281.6 255.3 281.7 256.5 281.7 257.6 281.8 258.8 281.8 260 281.9 261.1 281.9 262.3 282 263.4 282 264.6 282.1 265.8 282.1 266.9 282.1 268.1 282.2 269.2 282.2 270.4 282.2 271.6 282.2 272.7 282.3 273.9 282.3 275 282.3 276.2 282.3 277.4 282.3 278.5 282.3 279.7 282.3 280.8 282.3 282 282.3 283.1 282.3 284.3 282.3 285.5 282.3 286.6 282.3 287.8 282.2 288.9 282.2 290.1 282.2 291.3 282.2 292.4 282.2 293.6 282.1 294.7 282.1 295.9 282.1 297.1 282.1 298.2 282.1 299.4 282 300.5 282 301.7 282 302.9 282 304 282 305.2 282 306.3 281.9 307.5 281.9 308.6 281.9 309.8 281.9 311 281.9 312.1 281.9 313.3 281.9 314.4 281.9 315.6 281.9 316.8 281.9 317.9 281.9 319.1 281.8 320.2 281.8 321.4 281.8 322.5 281.8 323.7 281.8 324.9 281.8 326 281.8 327.2 281.8 328.4 281.8 329.5 281.8 330.7 281.8 331.8 281.8 333 281.8 334.1 281.9 335.3 281.9 336.5 281.9 337.6 281.9 338.8 281.9 339.9 281.9 341.1 281.9 342.3 281.9 343.4 281.9 344.6 281.9 345.7 281.9 346.9 281.9 348 282 349.2 282 350.4 282 351.5 282 352.7 282 353.9 282 355 282 356.2 282 357.3 282 358.5 282 359.6 282 360.8 282 362 282 363.1 282 364.3 282 365.4 282.1 366.6 282.1 367.8 282.1 368.9 282.1 370.1 282.1 371.2 282.1 372.4 282.1 373.5 282.1 374.7 282.1 375.9 282.1 377 282.1 378.2 282.1 379.3 282.1 380.5 282.1 381.7 282.1 382.8 282.1 384 282.1 385.1 282 386.3 282 387.5 282 388.6 282 389.8 281.9 390.9 281.9 392.1 281.8 393.2 281.8 394.4 281.7 395.6 281.7 396.7 281.6 397.9 281.5 399 281.4 400.2 281.3 401.4 281.2 402.5 281.2 403.7 281 404.8 280.9 406 280.8 407.2 280.7 408.3 280.6 409.5 280.5 410.6 280.3 411.8 280.2 413 280.1 414.1 280 415.3 279.8 416.4 279.7 417.6 279.6 418.8 279.5 419.9 279.3 421.1 279.2 422.2 279.1 423.4 279 424.5 278.8 425.7 278.7 426.9 278.6 428 278.5 429.2 278.3 430.3 278.2 431.5 278.1 432.7 278 433.8 277.8 435 277.7 436.1 277.6 437.3 277.4 438.5 277.3 439.6 277.1 440.8 276.9 441.9 276.8 443.1 276.6 444.2 276.4 445.4 276.2 446.6 276 447.7 275.8 448.9 275.6 450 275.4 451.2 275.1 452.4 274.9 453.5 274.7 454.7 274.4 455.8 274.1 457 273.9 458.1 273.6 459.3 273.3 460.5 273 461.6 272.7 462.8 272.4 464 272.1 465.1 271.8 466.3 271.5 467.4 271.2 468.6 270.9 469.7 270.5 470.9 270.2 472.1 269.8 473.2 269.5 474.4 269.1 475.5 268.7 476.7 268.3 477.9 267.9 479 267.5 480.2 267.1 481.3 266.7 482.5 266.2 483.6 265.8 484.8 265.3 486 264.8 487.1 264.3 488.3 263.8 489.5 263.2 490.6 262.7 491.8 262.1 492.9 261.6 494.1 261 495.2 260.4 496.4 259.8 497.6 259.1 498.7 258.5 499.9 257.8 501 257.2 502.2 256.4 503.4 255.7 504.5 255 505.7 254.2 506.8 253.5 508 252.7 509.1 251.8 510.3 251 511.5 250.1 512.6 249.2 513.8 248.3 514.9 247.3 516.1 246.3 517.3 245.3 518.4 244.3 519.6 243.2 520.7 242.1 521.9 240.9 523.1 239.7 524.2 238.5 525.4 237.2 526.5 235.9 527.7 234.5 528.8 233.1 530 231.6 531.2 230.1 532.3 228.6 533.5 227 534.7 225.3 535.8 223.6 537 221.8 538.1 219.9 539.3 218 540.4 216 541.6 214 542.8 211.8 543.9 209.6 545.1 207.4 546.2 205 547.4 202.6 548.5 200.1 549.7 197.5 550.9 194.8 552 192 553.2 189.2 554.3 186.2 555.5 183.2 556.7 180.1 557.8 176.9 559 173.6 560.1 170.3 561.3 166.8 562.5 163.3 563.6 159.7 564.8 156.1 565.9 152.4 567.1 148.6 568.3 144.9 569.4 141 570.6 137.2 571.7 133.3 572.9 129.5 574 125.7 575.2 122 576.4 118.3 577.5 114.7 578.7 111.2 579.8 107.9 581 104.8 582.2 101.9 583.3 99.2 584.5 96.9 585.6 94.8 586.8 93.1 588 91.9 589.1 91 590.3 90.7 591.4 90.9 592.6 91.6 593.8 92.9 594.9 94.8 596.1 97.2 597.2 100.2 598.4 103.9 599.5 108.2 600.7 113.1 601.9 118.5 603 124.4 604.2 130.8 605.3 137.7 606.5 144.9 607.7 152.4 608.8 160.2 610 168.2 611.1 176.3 612.3 184.4 613.5 192.5 614.6 200.5 615.8 208.3 616.9 216 618.1 223.3 619.2 230.3 620.4 237 621.6 243.3 622.7 249.2 623.9 254.7 625 259.7 626.2 264.4 627.4 268.6 628.5 272.4 629.7 275.9 630.8 279 632 281.8 633.2 284.2 634.3 286.4 635.5 288.3 636.6 290 637.8 291.5 639 292.8 640.1 293.9 641.3 294.8 642.4 295.7 643.6 296.4 644.8 297 645.9 297.6 647.1 298 648.2 298.4 649.4 298.7 650.5 299 651.7 299.2 652.9 299.4 654 299.6 655.2 299.7 656.3 299.8 657.5 299.9 658.7 300 659.8 300.1 661 300.1 662.1 300.1 663.3 300.2 664.5 300.2 665.6 300.2 666.8 300.2 667.9 300.2 669.1 300.2 670.2 300.2 671.4 300.2 672.6 300.2 673.7 300.2 674.9 300.2 676 300.2 677.2 300.2"/>
    <polyline class="cls-10" points="84.4 300.2 85.6 300.2 86.7 300.2 87.9 300.2 89.1 300.2 90.2 300.2 91.4 300.2 92.6 300.2 93.7 300.1 94.9 300.1 96.1 300 97.2 299.9 98.4 299.8 99.6 299.7 100.7 299.5 101.9 299.3 103 299 104.2 298.7 105.4 298.2 106.5 297.7 107.7 297.1 108.9 296.4 110 295.6 111.2 294.5 112.3 293.4 113.5 292 114.7 290.5 115.8 288.8 117 286.8 118.2 284.6 119.3 282.2 120.5 279.5 121.7 276.6 122.8 273.4 124 270.1 125.2 266.5 126.3 262.7 127.5 258.7 128.6 254.6 129.8 250.4 131 246.1 132.1 241.7 133.3 237.4 134.5 233.1 135.6 229 136.8 224.9 138 221.2 139.1 217.7 140.3 214.4 141.4 211.6 142.6 209 143.8 206.9 144.9 205.1 146.1 203.8 147.3 203 148.4 202.5 149.6 202.5 150.8 202.9 151.9 203.6 153.1 204.7 154.2 206.1 155.4 207.8 156.6 209.7 157.7 211.8 158.9 214.1 160.1 216.5 161.2 219 162.4 221.6 163.6 224.2 164.7 226.8 165.9 229.4 167.1 231.9 168.2 234.4 169.4 236.8 170.6 239.2 171.7 241.4 172.9 243.5 174 245.6 175.2 247.5 176.4 249.3 177.5 251 178.7 252.7 179.9 254.2 181 255.6 182.2 256.9 183.4 258.2 184.5 259.4 185.7 260.4 186.8 261.4 188 262.4 189.2 263.3 190.3 264.1 191.5 264.9 192.7 265.6 193.8 266.3 195 266.9 196.1 267.5 197.3 268.1 198.5 268.6 199.6 269.2 200.8 269.6 202 270.1 203.1 270.5 204.3 271 205.5 271.4 206.6 271.7 207.8 272.1 209 272.5 210.1 272.8 211.3 273.1 212.4 273.4 213.6 273.7 214.8 274 215.9 274.3 217.1 274.5 218.3 274.8 219.4 275 220.6 275.2 221.8 275.5 222.9 275.7 224.1 275.9 225.2 276.1 226.4 276.2 227.6 276.4 228.7 276.6 229.9 276.8 231.1 276.9 232.2 277.1 233.4 277.2 234.6 277.4 235.7 277.6 236.9 277.7 238.1 277.8 239.2 278 240.4 278.2 241.6 278.3 242.7 278.4 243.9 278.6 245 278.8 246.2 278.9 247.4 279.1 248.5 279.2 249.7 279.4 250.9 279.5 252 279.7 253.2 279.8 254.4 279.9 255.5 280.1 256.7 280.2 257.8 280.4 259 280.5 260.2 280.6 261.3 280.8 262.5 280.9 263.7 281 264.8 281.1 266 281.2 267.2 281.3 268.3 281.4 269.5 281.5 270.6 281.6 271.8 281.7 273 281.8 274.1 281.9 275.3 282 276.5 282.1 277.6 282.2 278.8 282.2 280 282.3 281.1 282.4 282.3 282.5 283.5 282.6 284.6 282.6 285.8 282.7 286.9 282.8 288.1 282.8 289.3 282.9 290.4 282.9 291.6 283 292.8 283.1 293.9 283.1 295.1 283.2 296.2 283.2 297.4 283.3 298.6 283.3 299.8 283.3 300.9 283.4 302.1 283.4 303.2 283.5 304.4 283.5 305.6 283.5 306.7 283.6 307.9 283.6 309.1 283.6 310.2 283.7 311.4 283.7 312.5 283.7 313.7 283.8 314.9 283.8 316 283.8 317.2 283.9 318.4 283.9 319.5 283.9 320.7 283.9 321.9 284 323 284 324.2 284 325.4 284 326.5 284 327.7 284 328.9 284 330 284 331.2 284.1 332.3 284.1 333.5 284.1 334.7 284.1 335.8 284.1 337 284.1 338.2 284.1 339.3 284.1 340.5 284.1 341.6 284.1 342.8 284.1 344 284.1 345.1 284.1 346.3 284.1 347.5 284.1 348.6 284.1 349.8 284.1 351 284.1 352.1 284.1 353.3 284 354.5 284 355.6 284 356.8 284 357.9 284 359.1 283.9 360.3 283.9 361.4 283.9 362.6 283.8 363.8 283.8 364.9 283.8 366.1 283.8 367.3 283.7 368.4 283.7 369.6 283.7 370.8 283.7 371.9 283.6 373.1 283.6 374.2 283.6 375.4 283.5 376.6 283.5 377.7 283.5 378.9 283.5 380.1 283.4 381.2 283.4 382.4 283.4 383.5 283.3 384.7 283.3 385.9 283.3 387 283.3 388.2 283.2 389.4 283.2 390.5 283.2 391.7 283.1 392.9 283.1 394 283.1 395.2 283 396.4 283 397.5 282.9 398.7 282.9 399.9 282.8 401 282.8 402.2 282.7 403.3 282.7 404.5 282.6 405.7 282.6 406.8 282.5 408 282.4 409.2 282.4 410.3 282.3 411.5 282.2 412.6 282.1 413.8 282.1 415 282 416.1 281.9 417.3 281.8 418.5 281.7 419.6 281.6 420.8 281.4 422 281.3 423.1 281.2 424.3 281.1 425.5 281 426.6 280.8 427.8 280.7 429 280.6 430.1 280.4 431.3 280.3 432.4 280.1 433.6 280 434.8 279.8 435.9 279.7 437.1 279.5 438.3 279.4 439.4 279.2 440.6 279 441.8 278.9 442.9 278.7 444.1 278.6 445.2 278.4 446.4 278.2 447.6 278 448.7 277.8 449.9 277.7 451.1 277.5 452.2 277.3 453.4 277.1 454.5 276.8 455.7 276.6 456.9 276.4 458 276.2 459.2 275.9 460.4 275.7 461.5 275.4 462.7 275.1 463.9 274.8 465 274.6 466.2 274.3 467.4 274 468.5 273.7 469.7 273.4 470.9 273.1 472 272.8 473.2 272.4 474.3 272.1 475.5 271.8 476.7 271.4 477.8 271.1 479 270.7 480.2 270.4 481.3 270 482.5 269.6 483.6 269.2 484.8 268.8 486 268.4 487.1 267.9 488.3 267.5 489.5 267 490.6 266.5 491.8 266 493 265.5 494.1 265 495.3 264.4 496.5 263.8 497.6 263.2 498.8 262.6 500 262 501.1 261.3 502.3 260.6 503.4 259.9 504.6 259.2 505.8 258.4 506.9 257.6 508.1 256.8 509.3 255.9 510.4 255.1 511.6 254.2 512.8 253.2 513.9 252.3 515.1 251.3 516.2 250.2 517.4 249.1 518.6 248 519.7 246.9 520.9 245.7 522.1 244.5 523.2 243.2 524.4 241.9 525.5 240.5 526.7 239.1 527.9 237.6 529 236.1 530.2 234.5 531.4 232.9 532.5 231.2 533.7 229.4 534.9 227.6 536 225.7 537.2 223.7 538.4 221.7 539.5 219.6 540.7 217.4 541.8 215.1 543 212.8 544.2 210.4 545.3 207.8 546.5 205.2 547.7 202.6 548.8 199.8 550 196.9 551.2 194 552.3 190.9 553.5 187.8 554.7 184.6 555.8 181.2 557 177.8 558.2 174.3 559.3 170.7 560.5 167 561.6 163.3 562.8 159.4 564 155.5 565.1 151.5 566.3 147.4 567.5 143.4 568.6 139.2 569.8 135.1 571 130.9 572.1 126.8 573.3 122.6 574.4 118.6 575.6 114.6 576.8 110.7 577.9 107 579.1 103.4 580.3 100 581.4 96.9 582.6 94 583.8 91.5 584.9 89.2 586.1 87.4 587.2 85.9 588.4 84.9 589.6 84.4 590.7 84.5 591.9 85.1 593.1 86.2 594.2 88 595.4 90.3 596.6 93.3 597.7 96.8 598.9 101 600 105.8 601.2 111.2 602.4 117.1 603.5 123.5 604.7 130.3 605.9 137.5 607 145.1 608.2 152.9 609.4 161 610.5 169.1 611.7 177.4 612.8 185.6 614 193.8 615.2 201.9 616.3 209.7 617.5 217.3 618.7 224.6 619.8 231.5 621 238.1 622.2 244.3 623.3 250.1 624.5 255.5 625.7 260.5 626.8 265.1 628 269.2 629.2 273 630.3 276.4 631.5 279.4 632.6 282.1 633.8 284.6 635 286.7 636.1 288.6 637.3 290.3 638.5 291.7 639.6 293 640.8 294.1 642 295 643.1 295.8 644.3 296.6 645.4 297.2 646.6 297.7 647.8 298.1 648.9 298.5 650.1 298.8 651.3 299.1 652.4 299.3 653.6 299.5 654.8 299.7 655.9 299.8 657.1 299.9 658.2 299.9 659.4 300 660.6 300.1 661.7 300.1 662.9 300.2 664.1 300.2 665.2 300.2 666.4 300.2 667.6 300.2 668.7 300.2 669.9 300.2 671 300.2 672.2 300.2 673.4 300.2 674.5 300.2 675.7 300.2 676.9 300.2 678 300.2 679.2 300.2"/>
    <polyline class="cls-2" points="84.8 300.2 85.9 300.2 87.1 300.2 88.3 300.2 89.4 300.2 90.6 300.2 91.8 300.2 92.9 300.1 94.1 300.1 95.2 300.1 96.4 300 97.6 299.9 98.7 299.8 99.9 299.6 101.1 299.4 102.2 299.2 103.4 298.9 104.5 298.5 105.7 298.1 106.9 297.6 108 296.9 109.2 296.1 110.4 295.2 111.5 294.1 112.7 292.9 113.8 291.5 115 289.8 116.2 288 117.3 285.9 118.5 283.6 119.7 281.1 120.8 278.2 122 275.2 123.2 271.9 124.3 268.4 125.5 264.7 126.6 260.8 127.8 256.7 129 252.4 130.1 248.1 131.3 243.7 132.4 239.4 133.6 235 134.8 230.8 135.9 226.6 137.1 222.7 138.3 219.1 139.4 215.7 140.6 212.7 141.8 210.1 142.9 207.8 144.1 205.9 145.2 204.5 146.4 203.6 147.6 203.1 148.7 203 149.9 203.3 151.1 204 152.2 205.1 153.4 206.5 154.6 208.1 155.7 210.1 156.9 212.3 158 214.6 159.2 217.1 160.4 219.6 161.5 222.3 162.7 224.9 163.9 227.6 165 230.2 166.2 232.9 167.3 235.4 168.5 237.9 169.7 240.2 170.8 242.5 172 244.7 173.2 246.8 174.3 248.7 175.5 250.6 176.6 252.3 177.8 254 179 255.5 180.1 257 181.3 258.3 182.5 259.6 183.6 260.8 184.8 261.9 185.9 262.9 187.1 263.9 188.3 264.8 189.4 265.6 190.6 266.4 191.8 267.2 192.9 267.8 194.1 268.5 195.2 269.1 196.4 269.7 197.6 270.2 198.7 270.7 199.9 271.2 201.1 271.7 202.2 272.1 203.4 272.5 204.6 272.9 205.7 273.3 206.9 273.7 208.1 274 209.2 274.4 210.4 274.7 211.5 275 212.7 275.3 213.9 275.7 215 275.9 216.2 276.2 217.4 276.5 218.5 276.8 219.7 277 220.8 277.3 222 277.5 223.2 277.7 224.3 277.9 225.5 278.1 226.6 278.3 227.8 278.5 229 278.7 230.1 278.8 231.3 279 232.5 279.1 233.6 279.2 234.8 279.3 236 279.4 237.1 279.5 238.3 279.6 239.4 279.7 240.6 279.7 241.8 279.8 242.9 279.9 244.1 279.9 245.3 279.9 246.4 280 247.6 280 248.8 280.1 249.9 280.1 251.1 280.1 252.2 280.1 253.4 280.2 254.6 280.2 255.7 280.2 256.9 280.2 258 280.2 259.2 280.2 260.4 280.2 261.5 280.2 262.7 280.3 263.9 280.3 265 280.3 266.2 280.3 267.4 280.4 268.5 280.4 269.7 280.4 270.9 280.5 272 280.5 273.2 280.5 274.3 280.6 275.5 280.6 276.7 280.7 277.8 280.7 279 280.8 280.1 280.8 281.3 280.9 282.5 281 283.6 281 284.8 281.1 286 281.1 287.1 281.2 288.3 281.3 289.5 281.3 290.6 281.4 291.8 281.5 292.9 281.5 294.1 281.6 295.3 281.7 296.4 281.8 297.6 281.8 298.8 281.9 299.9 282 301.1 282 302.2 282.1 303.4 282.2 304.6 282.2 305.7 282.3 306.9 282.4 308.1 282.4 309.2 282.5 310.4 282.5 311.5 282.6 312.7 282.6 313.9 282.7 315 282.7 316.2 282.8 317.4 282.8 318.5 282.8 319.7 282.9 320.9 282.9 322 283 323.2 283 324.3 283 325.5 283.1 326.7 283.1 327.8 283.2 329 283.2 330.2 283.2 331.3 283.3 332.5 283.3 333.6 283.3 334.8 283.4 336 283.4 337.1 283.4 338.3 283.5 339.5 283.5 340.6 283.5 341.8 283.5 343 283.5 344.1 283.5 345.3 283.5 346.4 283.5 347.6 283.5 348.8 283.5 349.9 283.5 351.1 283.5 352.2 283.5 353.4 283.5 354.6 283.5 355.7 283.5 356.9 283.5 358.1 283.4 359.2 283.4 360.4 283.4 361.6 283.4 362.7 283.4 363.9 283.3 365 283.3 366.2 283.3 367.4 283.3 368.5 283.3 369.7 283.2 370.9 283.2 372 283.2 373.2 283.2 374.4 283.2 375.5 283.1 376.7 283.1 377.8 283.1 379 283.1 380.2 283.1 381.3 283 382.5 283 383.6 283 384.8 283 386 282.9 387.1 282.9 388.3 282.9 389.5 282.8 390.6 282.8 391.8 282.8 393 282.7 394.1 282.7 395.3 282.6 396.4 282.6 397.6 282.5 398.8 282.4 399.9 282.4 401.1 282.3 402.3 282.3 403.4 282.2 404.6 282.1 405.8 282.1 406.9 282 408.1 281.9 409.2 281.9 410.4 281.8 411.6 281.7 412.7 281.7 413.9 281.6 415 281.5 416.2 281.4 417.4 281.3 418.5 281.2 419.7 281.1 420.9 281 422 280.9 423.2 280.8 424.4 280.7 425.5 280.5 426.7 280.4 427.8 280.3 429 280.1 430.2 280 431.3 279.9 432.5 279.7 433.7 279.6 434.8 279.4 436 279.3 437.1 279.1 438.3 279 439.5 278.8 440.6 278.7 441.8 278.5 443 278.4 444.1 278.2 445.3 278 446.5 277.8 447.6 277.7 448.8 277.5 449.9 277.3 451.1 277.1 452.3 276.8 453.4 276.6 454.6 276.4 455.8 276.2 456.9 275.9 458.1 275.7 459.2 275.4 460.4 275.1 461.6 274.9 462.7 274.6 463.9 274.3 465.1 274 466.2 273.7 467.4 273.4 468.5 273 469.7 272.7 470.9 272.4 472 272 473.2 271.7 474.4 271.3 475.5 270.9 476.7 270.6 477.9 270.2 479 269.8 480.2 269.3 481.3 268.9 482.5 268.5 483.7 268.1 484.8 267.6 486 267.1 487.1 266.7 488.3 266.2 489.5 265.7 490.6 265.1 491.8 264.6 493 264.1 494.1 263.5 495.3 262.9 496.5 262.3 497.6 261.7 498.8 261 500 260.3 501.1 259.7 502.3 258.9 503.4 258.2 504.6 257.5 505.8 256.7 506.9 255.9 508.1 255.1 509.2 254.2 510.4 253.4 511.6 252.5 512.7 251.5 513.9 250.6 515.1 249.6 516.2 248.6 517.4 247.5 518.5 246.4 519.7 245.2 520.9 244 522 242.8 523.2 241.5 524.4 240.2 525.5 238.8 526.7 237.4 527.9 235.9 529 234.4 530.2 232.8 531.3 231.1 532.5 229.4 533.7 227.6 534.8 225.7 536 223.8 537.2 221.8 538.3 219.8 539.5 217.6 540.7 215.4 541.8 213.1 543 210.7 544.1 208.3 545.3 205.7 546.5 203.1 547.6 200.4 548.8 197.6 550 194.6 551.1 191.6 552.3 188.6 553.4 185.4 554.6 182.1 555.8 178.7 556.9 175.2 558.1 171.7 559.3 168.1 560.4 164.4 561.6 160.6 562.8 156.7 563.9 152.8 565.1 148.8 566.2 144.7 567.4 140.7 568.6 136.6 569.7 132.5 570.9 128.4 572 124.3 573.2 120.3 574.4 116.4 575.5 112.5 576.7 108.8 577.9 105.2 579 101.9 580.2 98.7 581.3 95.7 582.5 93.1 583.7 90.8 584.8 88.9 586 87.3 587.2 86.2 588.3 85.5 589.5 85.3 590.7 85.6 591.8 86.6 593 88.1 594.2 90.3 595.3 93 596.5 96.3 597.6 100.2 598.8 104.6 600 109.7 601.1 115.4 602.3 121.5 603.5 128.1 604.6 135.2 605.8 142.5 606.9 150.2 608.1 158.1 609.3 166.1 610.4 174.3 611.6 182.5 612.8 190.6 613.9 198.7 615.1 206.5 616.2 214.2 617.4 221.6 618.6 228.7 619.7 235.4 620.9 241.7 622.1 247.6 623.2 253.2 624.4 258.3 625.5 263 626.7 267.4 627.9 271.3 629 274.8 630.2 278 631.4 280.8 632.5 283.4 633.7 285.6 634.8 287.6 636 289.4 637.2 290.9 638.3 292.2 639.5 293.4 640.7 294.4 641.8 295.3 643 296.1 644.2 296.8 645.3 297.3 646.5 297.8 647.6 298.2 648.8 298.6 650 298.9 651.1 299.1 652.3 299.3 653.5 299.5 654.6 299.7 655.8 299.8 656.9 299.9 658.1 300 659.3 300 660.4 300.1 661.6 300.1 662.8 300.2 663.9 300.2 665.1 300.2 666.2 300.2 667.4 300.2 668.6 300.2 669.7 300.2 670.9 300.2 672.1 300.2 673.2 300.2 674.4 300.2 675.5 300.2 676.7 300.2 677.9 300.2 679 300.2"/>
    <polyline class="cls-1" points="84.1 300.2 85.3 300.2 86.4 300.2 87.6 300.2 88.8 300.2 89.9 300.2 91.1 300.2 92.2 300.2 93.4 300.1 94.6 300.1 95.7 300 96.9 300 98 299.9 99.2 299.7 100.4 299.6 101.5 299.4 102.7 299.1 103.8 298.8 105 298.4 106.2 297.9 107.3 297.3 108.5 296.7 109.6 295.8 110.8 294.8 112 293.7 113.1 292.4 114.3 290.9 115.4 289.2 116.6 287.3 117.8 285.1 118.9 282.7 120.1 280 121.2 277.1 122.4 274 123.6 270.6 124.7 267 125.9 263.2 127 259.3 128.2 255.2 129.4 250.9 130.5 246.7 131.7 242.4 132.8 238.1 134 233.8 135.2 229.7 136.3 225.8 137.5 222.1 138.6 218.6 139.8 215.5 141 212.6 142.1 210.2 143.3 208.1 144.4 206.5 145.6 205.3 146.8 204.5 147.9 204.1 149.1 204.2 150.2 204.6 151.4 205.3 152.6 206.4 153.7 207.9 154.9 209.6 156 211.5 157.2 213.6 158.4 215.9 159.5 218.3 160.7 220.8 161.8 223.3 163 225.9 164.2 228.5 165.3 231.1 166.5 233.6 167.6 236.1 168.8 238.5 170 240.8 171.1 243 172.3 245.2 173.4 247.2 174.6 249.1 175.8 251 176.9 252.7 178.1 254.4 179.2 255.9 180.4 257.4 181.6 258.8 182.7 260 183.9 261.2 185 262.4 186.2 263.4 187.4 264.5 188.5 265.4 189.7 266.3 190.8 267.2 192 267.9 193.2 268.7 194.3 269.4 195.5 270 196.6 270.7 197.8 271.2 199 271.8 200.1 272.3 201.3 272.8 202.4 273.3 203.6 273.7 204.8 274.1 205.9 274.5 207.1 274.9 208.2 275.3 209.4 275.6 210.6 275.9 211.7 276.3 212.9 276.6 214 276.8 215.2 277.1 216.4 277.4 217.5 277.7 218.7 277.9 219.8 278.1 221 278.4 222.2 278.6 223.3 278.8 224.5 279 225.6 279.2 226.8 279.4 228 279.6 229.1 279.7 230.3 279.9 231.4 280 232.6 280.2 233.8 280.3 234.9 280.4 236.1 280.6 237.2 280.7 238.4 280.8 239.6 280.9 240.7 281 241.9 281.1 243 281.2 244.2 281.3 245.4 281.4 246.5 281.5 247.7 281.5 248.8 281.6 250 281.7 251.2 281.8 252.3 281.8 253.5 281.9 254.6 282 255.8 282 257 282.1 258.1 282.1 259.3 282.2 260.5 282.2 261.6 282.3 262.8 282.3 263.9 282.4 265.1 282.4 266.2 282.4 267.4 282.5 268.6 282.5 269.7 282.5 270.9 282.6 272 282.6 273.2 282.6 274.4 282.6 275.5 282.6 276.7 282.6 277.9 282.6 279 282.5 280.2 282.5 281.3 282.5 282.5 282.5 283.6 282.4 284.8 282.4 286 282.4 287.1 282.3 288.3 282.3 289.5 282.2 290.6 282.2 291.8 282.2 292.9 282.1 294.1 282.1 295.2 282 296.4 282 297.6 282 298.7 281.9 299.9 281.9 301 281.9 302.2 281.9 303.4 281.8 304.5 281.8 305.7 281.8 306.9 281.8 308 281.8 309.2 281.8 310.3 281.8 311.5 281.8 312.6 281.8 313.8 281.8 315 281.8 316.1 281.8 317.3 281.8 318.5 281.8 319.6 281.9 320.8 281.9 321.9 281.9 323.1 282 324.2 282 325.4 282 326.6 282.1 327.7 282.1 328.9 282.2 330 282.2 331.2 282.2 332.4 282.3 333.5 282.3 334.7 282.4 335.9 282.4 337 282.4 338.2 282.5 339.3 282.5 340.5 282.5 341.6 282.6 342.8 282.6 344 282.6 345.1 282.6 346.3 282.7 347.5 282.7 348.6 282.7 349.8 282.7 350.9 282.7 352.1 282.8 353.2 282.8 354.4 282.8 355.6 282.8 356.7 282.8 357.9 282.8 359 282.8 360.2 282.8 361.4 282.8 362.5 282.9 363.7 282.9 364.9 282.9 366 282.9 367.2 282.9 368.3 282.9 369.5 282.9 370.6 282.9 371.8 282.9 373 282.9 374.1 282.8 375.3 282.8 376.5 282.8 377.6 282.8 378.8 282.8 379.9 282.8 381.1 282.8 382.2 282.7 383.4 282.7 384.6 282.7 385.7 282.6 386.9 282.6 388 282.6 389.2 282.5 390.4 282.5 391.5 282.4 392.7 282.4 393.9 282.3 395 282.3 396.2 282.2 397.3 282.2 398.5 282.1 399.6 282 400.8 281.9 402 281.9 403.1 281.8 404.3 281.7 405.5 281.6 406.6 281.6 407.8 281.5 408.9 281.4 410.1 281.3 411.2 281.2 412.4 281.1 413.6 281 414.7 281 415.9 280.9 417 280.8 418.2 280.7 419.4 280.6 420.5 280.5 421.7 280.4 422.9 280.3 424 280.2 425.2 280.1 426.3 279.9 427.5 279.8 428.6 279.7 429.8 279.6 431 279.5 432.1 279.3 433.3 279.2 434.5 279.1 435.6 278.9 436.8 278.8 437.9 278.7 439.1 278.5 440.2 278.3 441.4 278.2 442.6 278 443.7 277.8 444.9 277.7 446 277.5 447.2 277.3 448.4 277.1 449.5 276.9 450.7 276.7 451.9 276.4 453 276.2 454.2 275.9 455.3 275.7 456.5 275.4 457.7 275.2 458.8 274.9 460 274.6 461.1 274.3 462.3 274 463.5 273.7 464.6 273.4 465.8 273.1 466.9 272.8 468.1 272.4 469.3 272.1 470.4 271.8 471.6 271.4 472.7 271.1 473.9 270.7 475.1 270.3 476.2 269.9 477.4 269.5 478.5 269.1 479.7 268.7 480.9 268.3 482 267.8 483.2 267.3 484.3 266.9 485.5 266.4 486.7 265.8 487.8 265.3 489 264.8 490.1 264.2 491.3 263.6 492.5 263.1 493.6 262.4 494.8 261.8 495.9 261.2 497.1 260.5 498.3 259.8 499.4 259.1 500.6 258.4 501.7 257.7 502.9 256.9 504.1 256.1 505.2 255.3 506.4 254.5 507.5 253.6 508.7 252.8 509.9 251.8 511 250.9 512.2 249.9 513.3 248.9 514.5 247.9 515.7 246.8 516.8 245.6 518 244.4 519.1 243.2 520.3 242 521.5 240.6 522.6 239.3 523.8 237.9 524.9 236.4 526.1 234.9 527.3 233.3 528.4 231.6 529.6 229.9 530.7 228.2 531.9 226.4 533.1 224.5 534.2 222.6 535.4 220.6 536.5 218.5 537.7 216.4 538.9 214.1 540 211.9 541.2 209.5 542.3 207.1 543.5 204.6 544.7 202 545.8 199.4 547 196.6 548.1 193.8 549.3 190.9 550.5 187.9 551.6 184.8 552.8 181.6 553.9 178.3 555.1 175 556.3 171.6 557.4 168 558.6 164.5 559.7 160.8 560.9 157.1 562.1 153.3 563.2 149.5 564.4 145.6 565.5 141.8 566.7 137.9 567.9 134 569 130.1 570.2 126.3 571.3 122.5 572.5 118.8 573.7 115.2 574.8 111.7 576 108.4 577.1 105.2 578.3 102.2 579.5 99.4 580.6 97 581.8 94.8 582.9 92.9 584.1 91.4 585.3 90.2 586.4 89.5 587.6 89.3 588.7 89.5 589.9 90.2 591.1 91.5 592.2 93.3 593.4 95.7 594.5 98.6 595.7 102 596.9 106 598 110.5 599.2 115.5 600.3 121 601.5 127 602.7 133.4 603.8 140.1 605 147.1 606.1 154.4 607.3 161.8 608.5 169.4 609.6 177.1 610.8 184.8 611.9 192.4 613.1 200 614.3 207.4 615.4 214.7 616.6 221.7 617.7 228.4 618.9 234.8 620.1 240.8 621.2 246.5 622.4 251.9 623.5 256.9 624.7 261.5 625.9 265.8 627 269.7 628.2 273.2 629.3 276.4 630.5 279.3 631.7 281.9 632.8 284.2 634 286.3 635.1 288.2 636.3 289.8 637.5 291.3 638.6 292.5 639.8 293.7 640.9 294.6 642.1 295.5 643.3 296.2 644.4 296.9 645.6 297.4 646.7 297.9 647.9 298.3 649.1 298.7 650.2 298.9 651.4 299.2 652.5 299.4 653.7 299.6 654.9 299.7 656 299.8 657.2 299.9 658.3 300 659.5 300.1 660.7 300.1 661.8 300.1 663 300.2 664.2 300.2 665.3 300.2 666.5 300.2 667.6 300.2 668.8 300.2 670 300.2 671.1 300.2 672.3 300.2 673.4 300.2 674.6 300.2 675.8 300.2 676.9 300.2"/>
  </g>
</svg>